<svg style="color: rgb(27, 177, 29);" xmlns="http://www.w3.org/2000/svg" xmlns:xlink="http://www.w3.org/1999/xlink" width="40" zoomAndPan="magnify" viewBox="0 0 30 30.000001" height="40" preserveAspectRatio="xMidYMid meet" version="1.0"><defs><clipPath id="id1"><path d="M 1.988281 3.675781 L 28.101562 3.675781 L 28.101562 25.453125 L 1.988281 25.453125 Z M 1.988281 3.675781 " clip-rule="nonzero" fill="#1bb11d"></path></clipPath></defs><g clip-path="url(#id1)"><path fill="#1bb11d" d="M 27.917969 15.417969 L 25.402344 13.066406 L 23.480469 11.269531 C 23.480469 11.25 23.484375 11.234375 23.484375 11.214844 L 23.484375 7.976562 C 23.484375 7.675781 23.238281 7.433594 22.941406 7.433594 L 21.667969 7.433594 C 21.367188 7.433594 21.125 7.675781 21.125 7.976562 L 21.125 9.0625 L 15.535156 3.835938 C 15.316406 3.632812 14.980469 3.625 14.75 3.820312 L 6.453125 10.90625 L 4.710938 12.394531 L 2.195312 14.542969 C 1.945312 14.757812 1.917969 15.128906 2.128906 15.375 C 2.339844 15.625 2.710938 15.652344 2.960938 15.441406 L 4.710938 13.945312 L 4.710938 25.027344 C 4.710938 25.261719 4.898438 25.453125 5.132812 25.453125 L 15.480469 25.453125 C 15.949219 25.453125 16.332031 25.070312 16.332031 24.597656 L 16.308594 24.1875 C 16.253906 23.4375 16.214844 22.457031 16.191406 22.050781 C 16.175781 21.84375 16.167969 21.664062 16.160156 21.507812 C 16.132812 20.996094 16.132812 20.738281 16.140625 20.574219 C 16.140625 20.550781 16.144531 20.527344 16.144531 20.503906 C 16.183594 19.667969 16.332031 18.890625 16.671875 18.121094 C 16.671875 18.117188 16.675781 18.113281 16.675781 18.109375 C 17.042969 17.285156 17.28125 16.757812 17.679688 16.179688 C 18.121094 15.539062 18.667969 14.96875 19.285156 14.488281 C 19.691406 14.175781 20.25 13.769531 20.988281 13.3125 L 19.121094 14.914062 C 16.820312 17.25 16.761719 19.824219 16.804688 19.84375 C 18.851562 20.746094 20.167969 19.296875 20.585938 18.445312 C 21.574219 16.414062 21.011719 14.421875 21.917969 12.664062 C 21.132812 12.707031 19.726562 12.90625 18.222656 13.820312 C 17.589844 14.203125 15.117188 15.425781 15.203125 18.496094 C 13.875 16.722656 12.429688 16.65625 11.59375 16.601562 C 10.339844 16.527344 9.023438 16.707031 8.171875 17.199219 C 9.890625 17.933594 9.5625 19.179688 10.742188 20.304688 C 11.238281 20.777344 13.167969 21.660156 14.398438 20.472656 C 12.957031 17.644531 9.191406 17.285156 9.191406 17.285156 C 10.84375 17.132812 12.535156 17.957031 13.535156 18.632812 C 14.269531 19.128906 14.753906 19.882812 14.933594 20.738281 C 14.96875 20.894531 14.992188 21.058594 15.003906 21.222656 C 15.054688 21.859375 15.089844 22.445312 15.117188 22.984375 C 15.125 23.203125 15.136719 23.933594 15.140625 24.21875 C 15.140625 24.28125 15.089844 24.332031 15.027344 24.332031 L 6.003906 24.332031 C 5.941406 24.332031 5.890625 24.28125 5.890625 24.21875 L 5.890625 12.941406 L 6.886719 12.089844 L 8.269531 10.90625 L 15.117188 5.058594 L 21.125 10.679688 L 21.367188 10.90625 L 22.628906 12.089844 L 22.675781 12.132812 L 24.222656 13.578125 L 24.222656 24.21875 C 24.222656 24.28125 24.171875 24.332031 24.109375 24.332031 L 17.90625 24.332031 C 17.59375 24.332031 17.339844 24.582031 17.335938 24.890625 C 17.335938 25.046875 17.398438 25.1875 17.5 25.289062 C 17.601562 25.386719 17.742188 25.453125 17.898438 25.453125 L 24.976562 25.453125 C 25.210938 25.453125 25.402344 25.261719 25.402344 25.027344 L 25.402344 14.683594 L 27.109375 16.28125 C 27.226562 16.386719 27.371094 16.4375 27.511719 16.4375 C 27.671875 16.4375 27.828125 16.375 27.945312 16.253906 C 28.167969 16.015625 28.152344 15.640625 27.917969 15.417969 " fill-opacity="1" fill-rule="nonzero"></path></g></svg>